<svg width="885" height="606" viewBox="0 0 885 606" fill="none" xmlns="http://www.w3.org/2000/svg">
<g clip-path="url(#clip0)">
<path d="M553.019 311.824C553.019 278.711 535.451 238.946 500.804 193.634C475.485 160.522 450.537 137.057 449.487 136.074L443 130L436.512 136.074C435.462 137.057 410.514 160.522 385.196 193.634C350.548 238.946 332.98 278.711 332.98 311.824C332.98 369.291 377.27 416.6 433.507 421.43V454.001H452.492V421.43C508.729 416.6 553.019 369.291 553.019 311.824ZM433.507 336.013L363.209 265.715C369.445 251.469 377.643 237.497 386.145 224.835L433.507 272.197V336.013ZM452.492 272.198L499.855 224.835C508.357 237.497 516.556 251.469 522.791 265.715L452.492 336.014V272.198ZM485.892 205.386C486.826 206.61 487.767 207.858 488.714 209.127L452.492 245.349V166.138C461.72 175.959 473.853 189.621 485.892 205.386ZM433.507 166.138V245.349L397.285 209.127C398.232 207.858 399.174 206.61 400.109 205.387C412.147 189.621 424.28 175.959 433.507 166.138ZM351.965 311.824C351.965 303.263 353.459 294.364 356.029 285.384L433.507 362.862V402.365C387.755 397.603 351.965 358.815 351.965 311.824ZM452.492 402.365V362.863L529.971 285.384C532.541 294.364 534.035 303.264 534.035 311.825C534.034 358.815 498.245 397.603 452.492 402.365Z" fill="#CCE3AD"/>
</g>
<path d="M19.796 391.48H9.796V401.48H19.796V391.48ZM19.796 335.728L11.6003 329.998L9.796 332.579V335.728H19.796ZM147.46 153.12V143.12H142.25L139.264 147.39L147.46 153.12ZM224.624 153.12H234.624V143.12H224.624V153.12ZM224.624 331.688H214.624V341.688H224.624V331.688ZM257.752 331.688H267.752V321.688H257.752V331.688ZM257.752 391.48V401.48H267.752V391.48H257.752ZM224.624 391.48V381.48H214.624V391.48H224.624ZM224.624 444V454H234.624V444H224.624ZM155.54 444H145.54V454H155.54V444ZM155.54 391.48H165.54V381.48H155.54V391.48ZM160.388 229.072H170.388V195.826L152.047 223.555L160.388 229.072ZM92.516 331.688L84.1754 326.171L73.9124 341.688H92.516V331.688ZM160.388 331.688V341.688H170.388V331.688H160.388ZM29.796 391.48V335.728H9.796V391.48H29.796ZM27.9917 341.458L155.656 158.85L139.264 147.39L11.6003 329.998L27.9917 341.458ZM147.46 163.12H224.624V143.12H147.46V163.12ZM214.624 153.12V331.688H234.624V153.12H214.624ZM224.624 341.688H257.752V321.688H224.624V341.688ZM247.752 331.688V391.48H267.752V331.688H247.752ZM257.752 381.48H224.624V401.48H257.752V381.48ZM214.624 391.48V444H234.624V391.48H214.624ZM224.624 434H155.54V454H224.624V434ZM165.54 444V391.48H145.54V444H165.54ZM155.54 381.48H19.796V401.48H155.54V381.48ZM152.047 223.555L84.1754 326.171L100.857 337.205L168.729 234.589L152.047 223.555ZM92.516 341.688H160.388V321.688H92.516V341.688ZM170.388 331.688V229.072H150.388V331.688H170.388ZM630.846 391.48H620.846V401.48H630.846V391.48ZM630.846 335.728L622.65 329.998L620.846 332.579V335.728H630.846ZM758.51 153.12V143.12H753.3L750.314 147.39L758.51 153.12ZM835.674 153.12H845.674V143.12H835.674V153.12ZM835.674 331.688H825.674V341.688H835.674V331.688ZM868.802 331.688H878.802V321.688H868.802V331.688ZM868.802 391.48V401.48H878.802V391.48H868.802ZM835.674 391.48V381.48H825.674V391.48H835.674ZM835.674 444V454H845.674V444H835.674ZM766.59 444H756.59V454H766.59V444ZM766.59 391.48H776.59V381.48H766.59V391.48ZM771.438 229.072H781.438V195.826L763.097 223.555L771.438 229.072ZM703.566 331.688L695.225 326.171L684.962 341.688H703.566V331.688ZM771.438 331.688V341.688H781.438V331.688H771.438ZM640.846 391.48V335.728H620.846V391.48H640.846ZM639.042 341.458L766.706 158.85L750.314 147.39L622.65 329.998L639.042 341.458ZM758.51 163.12H835.674V143.12H758.51V163.12ZM825.674 153.12V331.688H845.674V153.12H825.674ZM835.674 341.688H868.802V321.688H835.674V341.688ZM858.802 331.688V391.48H878.802V331.688H858.802ZM868.802 381.48H835.674V401.48H868.802V381.48ZM825.674 391.48V444H845.674V391.48H825.674ZM835.674 434H766.59V454H835.674V434ZM776.59 444V391.48H756.59V444H776.59ZM766.59 381.48H630.846V401.48H766.59V381.48ZM763.097 223.555L695.225 326.171L711.907 337.205L779.779 234.589L763.097 223.555ZM703.566 341.688H771.438V321.688H703.566V341.688ZM781.438 331.688V229.072H761.438V331.688H781.438Z" fill="#CCE3AD"/>
<defs>
<clipPath id="clip0">
<rect width="324" height="324" fill="white" transform="translate(281 130)"/>
</clipPath>
</defs>
</svg>
