<svg width="30" height="30" fill="none" xmlns="http://www.w3.org/2000/svg"><path d="M14.174 2.448H13.12V.586A.586.586 0 0012.533 0H5.465a.586.586 0 00-.586.586v1.862h-.722a.586.586 0 00-.586.586v2.741c0 .324.263.586.586.586h.658v19.288A4.355 4.355 0 009.165 30a4.356 4.356 0 004.351-4.35V6.36h.658a.586.586 0 00.586-.586v-2.74a.586.586 0 00-.586-.586zM6.051 1.172h5.896v1.276H6.051V1.172zm3.115 27.656a3.182 3.182 0 01-3.179-3.179V13.833h6.358v11.816a3.182 3.182 0 01-3.18 3.18zm3.179-16.167H5.987v-6.3h6.358v6.3zm1.243-7.472H4.743V3.62h8.845v1.57zM24.745 9.99h-7.642c-.927 0-1.682.754-1.682 1.682v5.943c0 .761.508 1.406 1.204 1.613l.161.674a.586.586 0 00.896.35l1.428-.955h5.635c.928 0 1.682-.755 1.682-1.682v-5.943c0-.928-.754-1.682-1.682-1.682zm.51 7.625a.51.51 0 01-.51.51h-5.813a.586.586 0 00-.326.1l-.876.586-.057-.236a.586.586 0 00-.57-.45.511.511 0 01-.51-.51v-5.943a.51.51 0 01.51-.51h7.642a.51.51 0 01.51.51v5.943z" fill="#85AEC6"/><path d="M23.062 13.092a.586.586 0 00-.823.095l-1.528 1.928-.846-.783a.586.586 0 10-.796.86l1.31 1.212a.586.586 0 00.858-.066l1.92-2.423a.586.586 0 00-.095-.823z" fill="#85AEC6"/></svg>