<svg width="17" height="17" fill="none" xmlns="http://www.w3.org/2000/svg"><g clip-path="url(#clip0)" fill="#828282"><path d="M13.47 3.647l-.995 11.525-7.454.014L3.983 3.664l-1.288.115L3.752 15.51c.056.54.528.964 1.076.963l7.845-.015a1.089 1.089 0 001.073-.974L14.76 3.756l-1.288-.11z"/><path d="M11.092.599L6.35.608a1.076 1.076 0 00-1.076 1.074l.004 2.036 1.293-.002-.004-1.822 4.31-.009.004 1.822 1.293-.002-.004-2.036a1.076 1.076 0 00-1.08-1.07z"/><path d="M15.622 3.055L1.83 3.081a.645.645 0 00-.646.644c.001.356.29.643.648.642l13.793-.026a.644.644 0 00.645-.644.645.645 0 00-.648-.642z"/></g><defs><clipPath id="clip0"><path fill="#fff" transform="rotate(-.107 330.828 -437.378)" d="M0 0h15.904v15.862H0z"/></clipPath></defs></svg>