<svg width="51" height="51" fill="none" xmlns="http://www.w3.org/2000/svg"><path d="M47.43 23.046l-1.32-5.283a.799.799 0 00.631-.781v-.852a3.358 3.358 0 00-3.354-3.354h-6.015V11.02c0-.91-.74-1.65-1.65-1.65H5.056c-.91 0-1.65.74-1.65 1.65V25.5a.799.799 0 101.597 0V11.02c0-.03.024-.054.053-.054H35.72c.03 0 .053.024.053.054V25.5a.799.799 0 001.597 0v-.905h9.425a2.61 2.61 0 012.481 1.81h-2.483a.799.799 0 00-.798.798v1.704a2.505 2.505 0 002.502 2.502h.905v3.513h-2.088a5.065 5.065 0 00-4.78-3.407 5.065 5.065 0 00-4.78 3.407h-.384v-6.015a.799.799 0 00-1.597 0v6.015H19.206a5.065 5.065 0 00-4.78-3.407 5.065 5.065 0 00-4.779 3.407h-4.59a.053.053 0 01-.053-.053v-1.757h3.46a.799.799 0 000-1.597H.8a.799.799 0 000 1.597h2.608v1.757c0 .91.74 1.65 1.65 1.65h4.314l-.001.054a5.063 5.063 0 005.057 5.057 5.063 5.063 0 005.057-5.057l-.001-.054H37.48l-.001.054a5.063 5.063 0 005.057 5.057 5.063 5.063 0 005.058-5.057l-.002-.054h2.61a.799.799 0 00.799-.798v-8.518a4.212 4.212 0 00-3.57-4.157zm-10.058-8.673h6.015a1.76 1.76 0 011.757 1.757v.053h-7.772v-1.81zm0 8.625V17.78h7.095l1.305 5.218h-8.4zM14.427 40.033a3.464 3.464 0 01-3.46-3.46 3.464 3.464 0 013.46-3.46 3.464 3.464 0 013.46 3.46 3.464 3.464 0 01-3.46 3.46zm28.108 0a3.464 3.464 0 01-3.46-3.46 3.464 3.464 0 013.46-3.46 3.464 3.464 0 013.46 3.46 3.464 3.464 0 01-3.46 3.46zm6.868-10.221h-.905a.906.906 0 01-.905-.905v-.905h1.81v1.81z" fill="#464646"/><path d="M14.427 34.923c-.91 0-1.65.74-1.65 1.65 0 .91.74 1.65 1.65 1.65.91 0 1.65-.74 1.65-1.65 0-.91-.74-1.65-1.65-1.65zm28.108 0c-.91 0-1.65.74-1.65 1.65 0 .91.74 1.65 1.65 1.65.91 0 1.65-.74 1.65-1.65 0-.91-.74-1.65-1.65-1.65zm-9.369-3.407H21.24a.799.799 0 000 1.597h11.925a.799.799 0 000-1.597zm-20.443-3.407H2.503a.799.799 0 000 1.597h10.22a.799.799 0 000-1.597zM27.768 17.27a.798.798 0 00-1.129 0l-7.101 7.1-3.695-3.693a.798.798 0 10-1.129 1.129l4.259 4.259a.796.796 0 001.13 0l7.665-7.666a.799.799 0 000-1.13z" fill="#464646"/></svg>