<svg width="58" height="58" fill="none" xmlns="http://www.w3.org/2000/svg"><path d="M57.057 27.593a3.999 3.999 0 00-2.369-1.36l-.443-6.012a.908.908 0 00.886-.75l.17-.969c.184-1.038-.072-2.063-.7-2.812-.627-.748-1.546-1.16-2.587-1.16h-6.667l.324-1.84a1.746 1.746 0 00-.366-1.431 1.72 1.72 0 00-1.326-.603H11.161c-.97 0-1.864.755-2.034 1.719L6.224 28.842a.908.908 0 101.788.316l2.904-16.468c.019-.108.159-.218.245-.218h32.704l-2.886 16.37a.908.908 0 101.788.316l.21-1.188h10.862c.75 0 1.4.28 1.826.79.294.35.466.786.507 1.269h-3.016a.908.908 0 00-.895.75l-.341 1.938c-.138.78.056 1.554.533 2.122.47.56 1.183.88 1.957.88h.855l-.705 3.997h-2.398a4.768 4.768 0 00-1.026-2.158c-.929-1.107-2.296-1.717-3.849-1.717-2.49 0-4.892 1.629-6.016 3.875h-.365l1.178-6.684a.908.908 0 10-1.788-.315l-1.234 6.999H22.25a4.769 4.769 0 00-1.027-2.158c-.93-1.107-2.296-1.717-3.849-1.717-2.49 0-4.892 1.63-6.016 3.875H6.15l.363-2.059h4.082a.908.908 0 000-1.816H.908a.908.908 0 000 1.816H4.67l-.324 1.84a1.746 1.746 0 00.366 1.432 1.72 1.72 0 001.326.603h4.732c-.246 1.54.124 2.992 1.05 4.095.929 1.107 2.296 1.717 3.848 1.717 3.091 0 6.048-2.51 6.592-5.594.013-.073.023-.145.033-.218h18.39c-.247 1.54.123 2.992 1.05 4.095.928 1.107 2.295 1.717 3.848 1.717 3.09 0 6.047-2.51 6.591-5.594.013-.073.023-.146.033-.218h3.118a.909.909 0 00.895-.75l1.708-9.687c.232-1.315-.077-2.559-.868-3.502zm-13.76-1.438l1.046-5.934h8.081l.438 5.934h-9.565zm10.216-7.968l-.038.218h-8.812l.364-2.058h6.987c.494 0 .92.181 1.196.51.286.342.394.814.303 1.33zM20.471 41.435c-.398 2.257-2.553 4.093-4.803 4.093-1.007 0-1.88-.38-2.458-1.068-.594-.708-.82-1.67-.638-2.71.398-2.256 2.553-4.092 4.803-4.092 1.007 0 1.88.379 2.458 1.068.594.708.82 1.67.638 2.71zm29.912 0c-.398 2.257-2.553 4.093-4.803 4.093-1.007 0-1.88-.38-2.458-1.068-.594-.709-.82-1.67-.638-2.71.398-2.257 2.553-4.092 4.803-4.092 1.007 0 1.88.379 2.458 1.067.594.709.82 1.671.638 2.71zm5.202-7.531H54.41c-.243 0-.438-.08-.566-.233-.132-.157-.18-.384-.136-.639l.21-1.186h2.03l-.363 2.058z" fill="#464646"/><path d="M18.018 40.319a1.72 1.72 0 00-1.326-.603c-.97 0-1.864.755-2.034 1.719a1.745 1.745 0 00.366 1.431 1.72 1.72 0 001.327.603c.97 0 1.863-.755 2.033-1.719a1.745 1.745 0 00-.366-1.431zm29.912 0a1.72 1.72 0 00-1.326-.603c-.97 0-1.864.755-2.033 1.719a1.745 1.745 0 00.365 1.431 1.72 1.72 0 001.327.603c.97 0 1.863-.755 2.034-1.719a1.745 1.745 0 00-.366-1.431zm-11.298-4.478H25.125a.908.908 0 000 1.817h11.507a.908.908 0 000-1.817zm-16.35-3.874H3.529a.908.908 0 000 1.816h16.753a.908.908 0 100-1.816zm17.342-3.654l-3.362-2.906a.908.908 0 00-1.188 1.374l1.517 1.311H11.563a.908.908 0 100 1.817h22.452l-1.873 1.24a.908.908 0 101.002 1.514l4.388-2.906a.907.907 0 00.092-1.444z" fill="#464646"/></svg>