<svg width="20" height="20" viewBox="0 0 20 20" fill="none" xmlns="http://www.w3.org/2000/svg">
<path d="M14.6151 3.27093C12.4963 1.84599 9.72229 1.48631 7.1961 2.55721C3.2218 4.242 1.36579 8.82959 3.05058 12.8039C4.73536 16.7782 9.32295 18.6342 13.2972 16.9494C15.8234 15.8785 17.4938 13.6348 17.943 11.1212" stroke="#D7E5ED" stroke-linecap="round"/>
<path d="M6.74438 9.5C6.46824 9.5 6.24438 9.72386 6.24438 10C6.24438 10.2761 6.46824 10.5 6.74438 10.5V9.5ZM13.4928 10.3536C13.6881 10.1583 13.6881 9.84171 13.4928 9.64645L10.3109 6.46447C10.1156 6.2692 9.79902 6.2692 9.60376 6.46447C9.40849 6.65973 9.40849 6.97631 9.60376 7.17157L12.4322 10L9.60376 12.8284C9.40849 13.0237 9.40849 13.3403 9.60376 13.5355C9.79902 13.7308 10.1156 13.7308 10.3109 13.5355L13.4928 10.3536ZM6.74438 10.5H13.1393V9.5H6.74438V10.5Z" fill="#D7E5ED"/>
</svg>
