<svg width="30" height="30" viewBox="0 0 30 30" fill="none" xmlns="http://www.w3.org/2000/svg">
<path d="M22.0776 5.52978C19.0957 3.52436 15.1916 3.01815 11.6364 4.52531C6.04306 6.89643 3.43096 13.3529 5.80208 18.9462C8.1732 24.5395 14.6296 27.1516 20.2229 24.7805C23.7782 23.2733 26.129 20.1155 26.7612 16.578" stroke="#85AEC6" stroke-linecap="round"/>
<path d="M11 14.5C10.7239 14.5 10.5 14.7239 10.5 15C10.5 15.2761 10.7239 15.5 11 15.5V14.5ZM20.3536 15.3536C20.5488 15.1583 20.5488 14.8417 20.3536 14.6464L17.1716 11.4645C16.9763 11.2692 16.6597 11.2692 16.4645 11.4645C16.2692 11.6597 16.2692 11.9763 16.4645 12.1716L19.2929 15L16.4645 17.8284C16.2692 18.0237 16.2692 18.3403 16.4645 18.5355C16.6597 18.7308 16.9763 18.7308 17.1716 18.5355L20.3536 15.3536ZM11 15.5H20V14.5H11V15.5Z" fill="#85AEC6"/>
</svg>
