<svg width="15" height="17" viewBox="0 0 15 17" fill="none" xmlns="http://www.w3.org/2000/svg">
<path d="M7.73186 0C3.07259 0 0.594727 2.98576 0.594727 6.24141C0.594727 7.75129 1.43839 9.63412 2.78889 10.2313C2.99396 10.3237 3.10553 10.2844 3.15122 10.0942C3.19159 9.9497 3.36904 9.25373 3.45511 8.9254C3.48167 8.82021 3.46786 8.72883 3.38285 8.63001C2.93446 8.11149 2.5785 7.16688 2.5785 6.28072C2.5785 4.01006 4.38377 1.80527 7.4556 1.80527C10.112 1.80527 11.9704 3.53085 11.9704 5.99915C11.9704 8.78833 10.4945 10.7179 8.57659 10.7179C7.5151 10.7179 6.72457 9.88488 6.97533 8.85421C7.27815 7.62697 7.87212 6.30728 7.87212 5.42218C7.87212 4.62846 7.42372 3.9718 6.50781 3.9718C5.42719 3.9718 4.55059 5.04179 4.55059 6.47835C4.55059 7.39108 4.87361 8.00736 4.87361 8.00736C4.87361 8.00736 3.80468 12.3256 3.60599 13.132C3.27022 14.4974 3.65168 16.7086 3.68462 16.8988C3.7048 17.004 3.82275 17.0369 3.88862 16.9508C3.99382 16.8127 5.28588 14.9692 5.6482 13.6367C5.77996 13.1512 6.3208 11.1823 6.3208 11.1823C6.67675 11.8251 7.70423 12.3638 8.79866 12.3638C12.0543 12.3638 14.4068 9.50237 14.4068 5.95133C14.3951 2.54693 11.4816 0 7.73186 0Z" fill="#464646"/>
</svg>
