<svg width="38" height="39" viewBox="0 0 38 39" fill="none" xmlns="http://www.w3.org/2000/svg">
<g clip-path="url(#clip0)">
<path d="M34.941 17.6121L33.9717 13.7277C34.2367 13.6713 34.4355 13.4358 34.4355 13.1536V12.5273C34.4355 11.1675 33.3313 10.0612 31.9741 10.0612H27.559V8.76939C27.559 8.10024 27.0157 7.55591 26.3478 7.55591H3.84261C3.17471 7.55591 2.63139 8.10024 2.63139 8.76939V19.4166C2.63139 19.7408 2.89377 20.0038 3.21748 20.0038C3.54112 20.0038 3.80357 19.7409 3.80357 19.4166V8.76939C3.80357 8.74778 3.82105 8.73027 3.84261 8.73027H26.3477C26.3693 8.73027 26.3868 8.74778 26.3868 8.76939V19.4168C26.3868 19.741 26.6491 20.0039 26.9729 20.0039C27.2965 20.0039 27.559 19.7411 27.559 19.4168V18.7511H34.4725C34.4731 18.7511 34.4736 18.7513 34.4741 18.7513C34.4747 18.7513 34.4752 18.7512 34.4757 18.7512C35.3264 18.7518 36.0488 19.3112 36.2969 20.0821H34.4745C34.1509 20.0821 33.8884 20.3449 33.8884 20.6693V21.9219C33.8884 22.9363 34.7122 23.7616 35.7248 23.7616H36.389V26.3451H34.8566C34.3532 24.8888 32.9714 23.8398 31.3488 23.8398C29.7262 23.8398 28.3443 24.8888 27.841 26.3451H27.5588V21.9218C27.5588 21.5975 27.2964 21.3346 26.9727 21.3346C26.6491 21.3346 26.3866 21.5975 26.3866 21.9218V26.345H14.227C13.7236 24.8887 12.3418 23.8397 10.7192 23.8397C9.09661 23.8397 7.71476 24.8887 7.21142 26.345H3.84261C3.82105 26.345 3.80357 26.3274 3.80357 26.3058V25.0141H6.34321C6.66685 25.0141 6.92931 24.7512 6.92931 24.4269C6.92931 24.1026 6.66693 23.8397 6.34321 23.8397H0.716953C0.393311 23.8397 0.130859 24.1026 0.130859 24.4269C0.130859 24.7512 0.393238 25.0141 0.716953 25.0141H2.63146V26.3058C2.63146 26.975 3.17479 27.5193 3.84268 27.5193H7.00848C7.00833 27.5324 7.00746 27.5453 7.00746 27.5584C7.00746 29.6089 8.6726 31.2771 10.7192 31.2771C12.7658 31.2771 14.431 29.6089 14.431 27.5584C14.431 27.5452 14.4301 27.5324 14.4299 27.5193H27.6381C27.6379 27.5324 27.637 27.5453 27.637 27.5584C27.637 29.6089 29.3022 31.2771 31.3488 31.2771C33.3954 31.2771 35.0605 29.6089 35.0605 27.5584C35.0605 27.5452 35.0597 27.5324 35.0595 27.5193H36.9751C37.2988 27.5193 37.5612 27.2564 37.5612 26.9321V20.6691C37.5613 19.1228 36.4225 17.8381 34.941 17.6121ZM27.559 11.2355H31.9741C32.685 11.2355 33.2634 11.815 33.2634 12.5273V12.5664H27.559V11.2355ZM27.559 17.5768V13.7407H32.7668L33.724 17.5768H27.559ZM10.7192 30.1029C9.31886 30.1029 8.17957 28.9616 8.17957 27.5586C8.17957 26.1555 9.31886 25.0142 10.7192 25.0142C12.1196 25.0142 13.2588 26.1555 13.2588 27.5586C13.2588 28.9616 12.1196 30.1029 10.7192 30.1029ZM31.3489 30.1029C29.9486 30.1029 28.8093 28.9616 28.8093 27.5586C28.8093 26.1555 29.9486 25.0142 31.3489 25.0142C32.7493 25.0142 33.8886 26.1555 33.8886 27.5586C33.8886 28.9616 32.7493 30.1029 31.3489 30.1029ZM36.3892 22.5873H35.7249C35.3587 22.5873 35.0607 22.2887 35.0607 21.9218V21.2563H36.3891V22.5873H36.3892Z" fill="#85AEC6"/>
<path d="M10.719 26.3452C10.0511 26.3452 9.50781 26.8896 9.50781 27.5587C9.50781 28.2278 10.0511 28.7722 10.719 28.7722C11.3869 28.7722 11.9303 28.2278 11.9303 27.5587C11.9303 26.8896 11.3869 26.3452 10.719 26.3452Z" fill="#85AEC6"/>
<path d="M31.3489 26.3452C30.681 26.3452 30.1377 26.8896 30.1377 27.5587C30.1377 28.2278 30.681 28.7722 31.3489 28.7722C32.0168 28.7722 32.5601 28.2278 32.5601 27.5587C32.5601 26.8896 32.0168 26.3452 31.3489 26.3452Z" fill="#85AEC6"/>
<path d="M24.4728 23.8398H15.7209C15.3972 23.8398 15.1348 24.1027 15.1348 24.427C15.1348 24.7513 15.3971 25.0142 15.7209 25.0142H24.4728C24.7965 25.0142 25.0589 24.7513 25.0589 24.427C25.0589 24.1027 24.7966 23.8398 24.4728 23.8398Z" fill="#85AEC6"/>
<path d="M9.46868 21.335H1.96695C1.64331 21.335 1.38086 21.5978 1.38086 21.9221C1.38086 22.2465 1.64324 22.5093 1.96695 22.5093H9.46868C9.79232 22.5093 10.0548 22.2465 10.0548 21.9221C10.0548 21.5978 9.79232 21.335 9.46868 21.335Z" fill="#85AEC6"/>
<path d="M9.06 14.42H8.04V19H6.89V14.42H6.24V13.49H6.89V13.1C6.89 12.4667 7.05667 12.0067 7.39 11.72C7.73 11.4267 8.26 11.28 8.98 11.28V12.23C8.63333 12.23 8.39 12.2967 8.25 12.43C8.11 12.5567 8.04 12.78 8.04 13.1V13.49H9.06V14.42ZM11.2103 14.29C11.377 14.01 11.597 13.7933 11.8703 13.64C12.1503 13.48 12.4803 13.4 12.8603 13.4V14.58H12.5703C12.1236 14.58 11.7836 14.6933 11.5503 14.92C11.3236 15.1467 11.2103 15.54 11.2103 16.1V19H10.0703V13.49H11.2103V14.29ZM18.9582 16.11C18.9582 16.3167 18.9449 16.5033 18.9182 16.67H14.7082C14.7415 17.11 14.9049 17.4633 15.1982 17.73C15.4915 17.9967 15.8515 18.13 16.2782 18.13C16.8915 18.13 17.3249 17.8733 17.5782 17.36H18.8082C18.6415 17.8667 18.3382 18.2833 17.8982 18.61C17.4649 18.93 16.9249 19.09 16.2782 19.09C15.7515 19.09 15.2782 18.9733 14.8582 18.74C14.4449 18.5 14.1182 18.1667 13.8782 17.74C13.6449 17.3067 13.5282 16.8067 13.5282 16.24C13.5282 15.6733 13.6415 15.1767 13.8682 14.75C14.1015 14.3167 14.4249 13.9833 14.8382 13.75C15.2582 13.5167 15.7382 13.4 16.2782 13.4C16.7982 13.4 17.2615 13.5133 17.6682 13.74C18.0749 13.9667 18.3915 14.2867 18.6182 14.7C18.8449 15.1067 18.9582 15.5767 18.9582 16.11ZM17.7682 15.75C17.7615 15.33 17.6115 14.9933 17.3182 14.74C17.0249 14.4867 16.6615 14.36 16.2282 14.36C15.8349 14.36 15.4982 14.4867 15.2182 14.74C14.9382 14.9867 14.7715 15.3233 14.7182 15.75H17.7682ZM25.1301 16.11C25.1301 16.3167 25.1167 16.5033 25.0901 16.67H20.8801C20.9134 17.11 21.0767 17.4633 21.3701 17.73C21.6634 17.9967 22.0234 18.13 22.4501 18.13C23.0634 18.13 23.4967 17.8733 23.7501 17.36H24.9801C24.8134 17.8667 24.5101 18.2833 24.0701 18.61C23.6367 18.93 23.0967 19.09 22.4501 19.09C21.9234 19.09 21.4501 18.9733 21.0301 18.74C20.6167 18.5 20.2901 18.1667 20.0501 17.74C19.8167 17.3067 19.7001 16.8067 19.7001 16.24C19.7001 15.6733 19.8134 15.1767 20.0401 14.75C20.2734 14.3167 20.5967 13.9833 21.0101 13.75C21.4301 13.5167 21.9101 13.4 22.4501 13.4C22.9701 13.4 23.4334 13.5133 23.8401 13.74C24.2467 13.9667 24.5634 14.2867 24.7901 14.7C25.0167 15.1067 25.1301 15.5767 25.1301 16.11ZM23.9401 15.75C23.9334 15.33 23.7834 14.9933 23.4901 14.74C23.1967 14.4867 22.8334 14.36 22.4001 14.36C22.0067 14.36 21.6701 14.4867 21.3901 14.74C21.1101 14.9867 20.9434 15.3233 20.8901 15.75H23.9401Z" fill="#85AEC6"/>
</g>
<defs>
<clipPath id="clip0">
<rect width="37.4304" height="37.5" fill="white" transform="translate(0.130859 0.666748)"/>
</clipPath>
</defs>
</svg>
