<svg width="19" height="18" viewBox="0 0 19 18" fill="none" xmlns="http://www.w3.org/2000/svg">
<path d="M8.85617 1.42527C9.24476 0.77902 10.1816 0.779019 10.5702 1.42527L12.8258 5.17657C12.9691 5.41495 13.2053 5.58286 13.4775 5.63996L17.8071 6.54814C18.5669 6.70752 18.8632 7.63421 18.3369 8.20486L15.4198 11.3673C15.2249 11.5785 15.1303 11.8634 15.1602 12.1493L15.6044 16.3989C15.6837 17.1575 14.9187 17.722 14.2172 17.4226L10.1058 15.6676C9.85499 15.5605 9.57137 15.5605 9.32059 15.6676L5.2091 17.4226C4.50764 17.722 3.74265 17.1575 3.82194 16.3989L4.26613 12.1493C4.29601 11.8634 4.20146 11.5785 4.00659 11.3673L1.08949 8.20486C0.563106 7.63421 0.859424 6.70752 1.61924 6.54814L5.94884 5.63996C6.22107 5.58286 6.45722 5.41495 6.60055 5.17657L8.85617 1.42527Z" fill="#F2E03A"/>
</svg>
