<svg width="1864" height="170" viewBox="0 0 1864 170" fill="none" xmlns="http://www.w3.org/2000/svg">
<g opacity="0.5">
<path d="M-12 5C94.6843 5 94.6843 53 201.333 53C307.982 53 308.018 5 414.667 5C521.351 5 521.351 53 628 53C734.649 53 734.684 5 841.333 5C948.018 5 948.018 53 1054.67 53C1161.32 53 1161.35 5 1268 5C1374.65 5 1374.68 53 1481.33 53C1588.02 53 1588.02 5 1694.67 5C1801.32 5 1801.35 53 1908 53" stroke="#828282" stroke-miterlimit="10"/>
<path d="M-12 63C94.6843 63 94.6843 111 201.333 111C307.982 111 308.018 63 414.667 63C521.351 63 521.351 111 628 111C734.649 111 734.684 63 841.333 63C948.018 63 948.018 111 1054.67 111C1161.32 111 1161.35 63 1268 63C1374.65 63 1374.68 111 1481.33 111C1588.02 111 1588.02 63 1694.67 63C1801.32 63 1801.35 111 1908 111" stroke="#828282" stroke-miterlimit="10"/>
<path d="M-12 121C94.6843 121 94.6843 169 201.333 169C307.982 169 308.018 121 414.667 121C521.351 121 521.351 169 628 169C734.649 169 734.684 121 841.333 121C948.018 121 948.018 169 1054.67 169C1161.32 169 1161.35 121 1268 121C1374.65 121 1374.68 169 1481.33 169C1588.02 169 1588.02 121 1694.67 121C1801.32 121 1801.35 169 1908 169" stroke="#828282" stroke-miterlimit="10"/>
<circle cx="359" cy="126" r="9.5" stroke="#BDBDBD"/>
<circle cx="124" cy="38" r="9.5" stroke="#BDBDBD"/>
<circle cx="267" cy="102" r="3.5" stroke="#BDBDBD"/>
<circle cx="1721" cy="4" r="3.5" stroke="#BDBDBD"/>
<circle cx="1835" cy="157" r="3.5" stroke="#BDBDBD"/>
</g>
</svg>
