<?xml version="1.0" encoding="utf-8"?><svg viewBox="0 0 29 28" xmlns="http://www.w3.org/2000/svg" xmlns:xlink="http://www.w3.org/1999/xlink"><svg viewBox="0 0 29 28" id="cart" xmlns="http://www.w3.org/2000/svg"><path d="M9.624 26.605c1.107 0 2.004-.884 2.004-1.973 0-1.09-.897-1.974-2.004-1.974-1.106 0-2.003.884-2.003 1.974 0 1.09.897 1.973 2.003 1.973zM21.782 26.605c1.106 0 2.003-.884 2.003-1.973 0-1.09-.897-1.974-2.003-1.974-1.107 0-2.003.884-2.003 1.974 0 1.09.896 1.973 2.003 1.973z" stroke-width="1.5" stroke-miterlimit="10"/><path d="M23.785 19.574H11.12a2.123 2.123 0 01-1.478-.608 2.06 2.06 0 01-.617-1.456v0c0-.514.195-1.009.547-1.388.35-.38.833-.617 1.352-.665L23.59 14.13a2.748 2.748 0 001.455-.635c.41-.35.705-.811.848-1.326l1.611-5.852a.515.515 0 00-.27-.588.536.536 0 00-.225-.059L6.551 5.217" stroke-width="1.5" stroke-miterlimit="10" stroke-linecap="round"/><path d="M10.131 15.695L5.561 3.402a2.738 2.738 0 00-1.013-1.305 2.804 2.804 0 00-1.59-.498H1.152" stroke-width="1.5" stroke-miterlimit="10" stroke-linecap="round"/></svg><svg viewBox="0 0 20 20" id="facebook" xmlns="http://www.w3.org/2000/svg"><path fill-rule="evenodd" clip-rule="evenodd" d="M8.282 19.853v-6.867H7v-2.464h1.282V8.927c0-1.14.504-2.927 2.72-2.927L13 6.009v2.393h-1.45c-.237 0-.571.127-.571.671v1.451h2.015l-.236 2.463h-1.78v6.966C16.043 19.46 20 15.193 20 10c0-5.523-4.477-10-10-10S0 4.477 0 10c0 4.937 3.578 9.039 8.282 9.853z"/></svg><svg viewBox="0 0 26 25" id="login" xmlns="http://www.w3.org/2000/svg"><path d="M12.7 13.54a6.22 6.22 0 100-12.44 6.22 6.22 0 000 12.44zM23.48 18.52v2a2.6 2.6 0 01-2.59 2.6H4.52a2.6 2.6 0 01-2.6-2.6V18.4" stroke-width="1.5" stroke-miterlimit="10"/><path d="M12.7 13.54c-1.72-.096-3.445.06-5.12.46-3.1.82-5.66 2.51-5.66 4.42" stroke-width="1.5" stroke-miterlimit="10"/><path d="M23.48 18.67a3.31 3.31 0 00-1.42-2.79 7.994 7.994 0 00-1.76-1.18" stroke-width="1.5" stroke-miterlimit="10" stroke-linecap="round"/></svg><svg viewBox="0 0 20 20" id="twitter" xmlns="http://www.w3.org/2000/svg"><path fill-rule="evenodd" clip-rule="evenodd" d="M20 10c0 5.523-4.476 10-10 10C4.479 20 .002 15.523.002 10s4.477-10 10-10 10 4.477 10 10zm-5.248-2.437a4.769 4.769 0 001.373-.376c-.32.479-.725.9-1.193 1.237.005.102.007.205.007.309 0 3.159-2.404 6.8-6.8 6.8a6.76 6.76 0 01-3.664-1.073 4.796 4.796 0 003.539-.99 2.393 2.393 0 01-2.233-1.66 2.393 2.393 0 001.079-.041 2.392 2.392 0 01-1.918-2.344v-.03c.323.18.692.287 1.083.3a2.39 2.39 0 01-.74-3.192A6.785 6.785 0 0010.214 9a2.39 2.39 0 014.073-2.18 4.786 4.786 0 001.518-.58 2.397 2.397 0 01-1.052 1.322z"/></svg></svg>