<svg width="30" height="30" viewBox="0 0 30 30" fill="none" xmlns="http://www.w3.org/2000/svg">
<path d="M14.1744 2.44793H13.1189V0.585938C13.1189 0.262324 12.8566 0 12.533 0H5.46527C5.14166 0 4.87934 0.262324 4.87934 0.585938V2.44793H4.15723C3.83361 2.44793 3.57129 2.71025 3.57129 3.03387V5.77506C3.57129 6.09867 3.83361 6.361 4.15723 6.361H4.81518V25.6494C4.81518 28.0484 6.76688 30 9.16576 30C11.5646 30 13.5163 28.0483 13.5163 25.6494V6.361H14.1743C14.4979 6.361 14.7602 6.09867 14.7602 5.77506V3.03387C14.7604 2.71025 14.498 2.44793 14.1744 2.44793ZM6.05121 1.17188H11.9471V2.44793H6.05121V1.17188ZM9.16582 28.8281C7.41305 28.8281 5.98711 27.4022 5.98711 25.6494V13.8326H12.3446V25.6494C12.3446 27.4022 10.9187 28.8281 9.16582 28.8281ZM12.3446 12.6607H5.98711V6.361H12.3446V12.6607ZM13.5885 5.18912H4.74316V3.6198H13.5885V5.18912Z" fill="#85AEC6"/>
<path d="M24.7447 9.98975H17.1035C16.1757 9.98975 15.4209 10.7444 15.4209 11.672V17.6149C15.4209 18.3763 15.9294 19.0211 16.6247 19.2278L16.7862 19.9022C16.8308 20.0887 16.9639 20.2415 17.1425 20.3114C17.2115 20.3384 17.2839 20.3517 17.356 20.3517C17.4705 20.3517 17.5841 20.3182 17.6819 20.2527L19.1101 19.2971H24.7447C25.6726 19.2971 26.4274 18.5424 26.4274 17.6148V11.672C26.4274 10.7444 25.6726 9.98975 24.7447 9.98975ZM25.2556 17.6149C25.2556 17.8963 25.0264 18.1253 24.7448 18.1253H18.9322C18.8162 18.1253 18.7028 18.1597 18.6064 18.2242L17.7299 18.8107L17.6734 18.5748C17.6103 18.3112 17.3746 18.1253 17.1036 18.1253C16.8219 18.1253 16.5928 17.8964 16.5928 17.615V11.672C16.5928 11.3905 16.822 11.1616 17.1036 11.1616H24.7448C25.0265 11.1616 25.2556 11.3905 25.2556 11.672V17.6149Z" fill="#85AEC6"/>
<path d="M23.0621 13.0916C22.8085 12.8906 22.44 12.9332 22.2389 13.1868L20.711 15.1149L19.8645 14.3323C19.6269 14.1126 19.2562 14.1272 19.0366 14.3647C18.8169 14.6024 18.8314 14.9731 19.069 15.1927L20.3798 16.4045C20.4884 16.505 20.6306 16.5602 20.7775 16.5602C20.7925 16.5602 20.8076 16.5596 20.8227 16.5584C20.9854 16.5458 21.1354 16.466 21.2368 16.3382L23.1574 13.9146C23.3584 13.6611 23.3157 13.2925 23.0621 13.0916Z" fill="#85AEC6"/>
</svg>
