<svg width="30" height="26" viewBox="0 0 30 26" fill="none" xmlns="http://www.w3.org/2000/svg">
<path d="M15.9949 17.7485H23.9924C24.2923 17.7485 24.4922 17.5486 24.4922 17.2487V12.7501C24.4922 12.4502 24.2923 12.2502 23.9924 12.2502H15.9949C15.695 12.2502 15.4951 12.4502 15.4951 12.7501V17.2487C15.4951 17.5485 15.695 17.7485 15.9949 17.7485ZM16.4948 13.2499H23.4926V16.7488H16.4948V13.2499Z" fill="#85AEC6"/>
<path d="M2.49885 11.2506H6.49762C6.79752 11.2506 6.99744 11.0507 6.99744 10.7508C6.99744 10.4509 6.79752 10.251 6.49762 10.251H2.49885C2.19894 10.251 1.99902 10.4509 1.99902 10.7508C1.99902 11.0507 2.19894 11.2506 2.49885 11.2506Z" fill="#85AEC6"/>
<path d="M8.49689 11.2506H12.4957C12.7956 11.2506 12.9955 11.0507 12.9955 10.7508C12.9955 10.4509 12.7956 10.251 12.4957 10.251H8.49689C8.19699 10.251 7.99707 10.4509 7.99707 10.7508C7.99707 11.0507 8.19699 11.2506 8.49689 11.2506Z" fill="#85AEC6"/>
<path d="M2.49885 13.2499H8.9968C9.29671 13.2499 9.49662 13.05 9.49662 12.7501C9.49662 12.4502 9.29671 12.2502 8.9968 12.2502H2.49885C2.19894 12.2502 1.99902 12.4502 1.99902 12.7501C1.99902 13.05 2.19894 13.2499 2.49885 13.2499Z" fill="#85AEC6"/>
<path d="M12.4954 12.2505H10.9959C10.696 12.2505 10.4961 12.4504 10.4961 12.7503C10.4961 13.0502 10.696 13.2501 10.9959 13.2501H12.4954C12.7954 13.2501 12.9953 13.0502 12.9953 12.7503C12.9953 12.4504 12.7954 12.2505 12.4954 12.2505Z" fill="#85AEC6"/>
<path d="M29.5408 6.05223C29.1909 5.60237 28.741 5.35243 28.1912 5.30247L26.9916 5.15708V3.75291V2.75326C26.9916 1.65363 26.0918 0.753906 24.9922 0.753906H1.99936C0.899719 0.753848 0 1.65357 0 2.75326V3.75297V7.75174V18.7483C0 19.6511 0.606666 20.4187 1.43235 20.6648C1.40716 21.6759 2.17221 22.5537 3.19904 22.6471L26.2918 25.2462C26.3418 25.2462 26.4418 25.2462 26.4917 25.2462C27.4914 25.2462 28.3912 24.4965 28.4911 23.5468L29.9906 7.5018C30.0406 7.00192 29.8906 6.45207 29.5408 6.05223ZM0.999707 4.25279H25.9919V5.55241V7.25186H0.999707V4.25279ZM1.99936 1.75355H24.9922C25.542 1.75355 25.9919 2.20341 25.9919 2.75326V3.25309H0.999707V2.75326C0.999707 2.20341 1.44957 1.75355 1.99936 1.75355ZM0.999707 18.7482V8.25151H25.9919V18.7482C25.9919 19.2981 25.5421 19.7479 24.9922 19.7479H2.04938H1.99941C1.44957 19.7479 0.999707 19.2981 0.999707 18.7482ZM28.9909 7.30182L27.4914 23.3468C27.4414 23.8967 26.9415 24.2965 26.3918 24.2465L3.34893 21.6474C2.84911 21.5974 2.49918 21.1975 2.44922 20.7476H24.9922C26.0918 20.7476 26.9915 19.8479 26.9915 18.7483V7.75168V6.1022L28.1412 6.20218C28.3911 6.20218 28.641 6.35214 28.7909 6.55206C28.941 6.75197 29.0409 7.05188 28.9909 7.30182Z" fill="#85AEC6"/>
</svg>
