<svg width="17" height="17" viewBox="0 0 17 17" fill="none" xmlns="http://www.w3.org/2000/svg">
<g clip-path="url(#clip0)">
<path d="M13.4706 3.64659L12.4754 15.1724L5.02127 15.1864L3.98316 3.66434L2.69528 3.77905L3.75234 15.5101C3.80783 16.0507 4.28039 16.4739 4.82844 16.4728L12.673 16.4582C13.2209 16.4571 13.692 16.0325 13.7464 15.4836L14.7589 3.75648L13.4706 3.64659Z" fill="#828282"/>
<path d="M11.0917 0.598977L6.35052 0.607847C5.75634 0.608959 5.27385 1.09065 5.27495 1.68163L5.27876 3.71798L6.57181 3.71556L6.5684 1.89353L10.8786 1.88547L10.882 3.70746L12.1751 3.70504L12.1713 1.6687C12.1702 1.07775 11.6859 0.597866 11.0917 0.598977Z" fill="#828282"/>
<path d="M15.6223 3.05526L1.82964 3.08107C1.47253 3.08173 1.18364 3.37015 1.18431 3.72534C1.18497 4.08053 1.47494 4.36786 1.83205 4.36719L15.6247 4.34138C15.9819 4.34072 16.2707 4.0523 16.2701 3.69711C16.2694 3.34192 15.9794 3.05459 15.6223 3.05526Z" fill="#828282"/>
</g>
<defs>
<clipPath id="clip0">
<rect width="15.9038" height="15.862" fill="white" transform="translate(0.818848 0.618164) rotate(-0.107192)"/>
</clipPath>
</defs>
</svg>
