<svg width="51" height="51" viewBox="0 0 51 51" fill="none" xmlns="http://www.w3.org/2000/svg">
<path d="M47.4298 23.0456L46.1091 17.7628C46.4702 17.6861 46.7411 17.3658 46.7411 16.982V16.1302C46.7411 14.2809 45.2365 12.7764 43.3873 12.7764H37.3716V11.0195C37.3716 10.1094 36.6313 9.36914 35.7213 9.36914H5.05737C4.14734 9.36914 3.40704 10.1094 3.40704 11.0195V25.4997C3.40704 25.9407 3.76454 26.2983 4.20561 26.2983C4.64658 26.2983 5.00418 25.9408 5.00418 25.4997V11.0195C5.00418 10.9901 5.02798 10.9663 5.05737 10.9663H35.7212C35.7506 10.9663 35.7744 10.9901 35.7744 11.0195V25.4999C35.7744 25.9409 36.1319 26.2985 36.573 26.2985C37.0139 26.2985 37.3715 25.941 37.3715 25.4999V24.5946H46.7915C46.7923 24.5946 46.7929 24.5948 46.7936 24.5948C46.7944 24.5948 46.7951 24.5947 46.7958 24.5947C47.9549 24.5955 48.9392 25.3563 49.2773 26.4047H46.7942C46.3532 26.4047 45.9956 26.7622 45.9956 27.2033V28.9068C45.9956 30.2865 47.118 31.4089 48.4977 31.4089H49.4028V34.9224H47.3147C46.6288 32.9419 44.7461 31.5153 42.5353 31.5153C40.3245 31.5153 38.4416 32.9419 37.7558 34.9224H37.3713V28.9067C37.3713 28.4658 37.0138 28.1082 36.5728 28.1082C36.1318 28.1082 35.7742 28.4657 35.7742 28.9067V34.9222H19.2064C18.5205 32.9417 16.6378 31.5151 14.4269 31.5151C12.2161 31.5151 10.3333 32.9417 9.64747 34.9222H5.05737C5.02798 34.9222 5.00418 34.8984 5.00418 34.869V33.1122H8.46451C8.90548 33.1122 9.26307 32.7547 9.26307 32.3137C9.26307 31.8726 8.90557 31.5151 8.46451 31.5151H0.798568C0.357598 31.5151 0 31.8726 0 32.3137C0 32.7547 0.357498 33.1122 0.798568 33.1122H3.40714V34.869C3.40714 35.7791 4.14744 36.5194 5.05747 36.5194H9.37095C9.37075 36.5371 9.36956 36.5547 9.36956 36.5726C9.36956 39.3612 11.6384 41.6299 14.4269 41.6299C17.2155 41.6299 19.4843 39.3612 19.4843 36.5726C19.4843 36.5546 19.4831 36.5371 19.4829 36.5194H37.4793C37.4791 36.5371 37.4779 36.5547 37.4779 36.5726C37.4779 39.3612 39.7467 41.6299 42.5353 41.6299C45.3239 41.6299 47.5927 39.3612 47.5927 36.5726C47.5927 36.5546 47.5915 36.5371 47.5913 36.5194H50.2013C50.6423 36.5194 50.9999 36.1619 50.9999 35.7208V27.2031C51 25.1002 49.4484 23.3529 47.4298 23.0456ZM37.3716 14.3734H43.3873C44.356 14.3734 45.1441 15.1615 45.1441 16.1302V16.1834H37.3716V14.3734ZM37.3716 22.9976V17.7805H44.4673L45.7716 22.9976H37.3716ZM14.4269 40.0331C12.5189 40.0331 10.9666 38.4809 10.9666 36.5728C10.9666 34.6646 12.5189 33.1124 14.4269 33.1124C16.3349 33.1124 17.8873 34.6646 17.8873 36.5728C17.8873 38.4809 16.3349 40.0331 14.4269 40.0331ZM42.5355 40.0331C40.6275 40.0331 39.0752 38.4809 39.0752 36.5728C39.0752 34.6646 40.6275 33.1124 42.5355 33.1124C44.4435 33.1124 45.9958 34.6646 45.9958 36.5728C45.9958 38.4809 44.4435 40.0331 42.5355 40.0331ZM49.403 29.8118H48.4979C47.9989 29.8118 47.5929 29.4058 47.5929 28.9067V28.0017H49.4029V29.8118H49.403Z" fill="#464646"/>
<path d="M14.4269 34.9229C13.5169 34.9229 12.7766 35.6632 12.7766 36.5732C12.7766 37.4832 13.5169 38.2235 14.4269 38.2235C15.337 38.2235 16.0773 37.4832 16.0773 36.5732C16.0773 35.6632 15.337 34.9229 14.4269 34.9229Z" fill="#464646"/>
<path d="M42.5355 34.9229C41.6254 34.9229 40.8851 35.6632 40.8851 36.5732C40.8851 37.4832 41.6254 38.2235 42.5355 38.2235C43.4455 38.2235 44.1858 37.4832 44.1858 36.5732C44.1858 35.6632 43.4455 34.9229 42.5355 34.9229Z" fill="#464646"/>
<path d="M33.1659 31.5156H21.2411C20.8001 31.5156 20.4425 31.8731 20.4425 32.3142C20.4425 32.7553 20.8 33.1128 21.2411 33.1128H33.1659C33.6069 33.1128 33.9645 32.7553 33.9645 32.3142C33.9645 31.8731 33.607 31.5156 33.1659 31.5156Z" fill="#464646"/>
<path d="M12.7234 28.1089H2.50206C2.06109 28.1089 1.70349 28.4664 1.70349 28.9075C1.70349 29.3485 2.06099 29.706 2.50206 29.706H12.7234C13.1643 29.706 13.5219 29.3485 13.5219 28.9075C13.5219 28.4664 13.1643 28.1089 12.7234 28.1089Z" fill="#464646"/>
<path d="M27.7682 17.2695C27.4565 16.9577 26.9508 16.9577 26.639 17.2696L19.5376 24.3708L15.8434 20.6766C15.5315 20.3647 15.0259 20.3647 14.7141 20.6766C14.4023 20.9885 14.4023 21.494 14.7141 21.8059L18.973 26.0648C19.1289 26.2208 19.3333 26.2987 19.5376 26.2987C19.7419 26.2987 19.9464 26.2208 20.1022 26.0648L27.7681 18.3988C28.08 18.0869 28.08 17.5813 27.7682 17.2695Z" fill="#464646"/>
</svg>
