<svg width="58" height="58" viewBox="0 0 58 58" fill="none" xmlns="http://www.w3.org/2000/svg">
<path d="M57.0567 27.5928C56.4537 26.8741 55.6312 26.4071 54.6882 26.2325L54.2453 20.2211C54.6822 20.2169 55.0548 19.9022 55.1309 19.471L55.3018 18.5023C55.4848 17.464 55.2295 16.439 54.6011 15.6903C53.9735 14.9424 53.0547 14.5304 52.0138 14.5304H45.3467L45.6713 12.6902C45.7634 12.1675 45.6299 11.6456 45.3053 11.2586C44.9838 10.8755 44.5004 10.6558 43.9791 10.6558H11.1609C10.1904 10.6558 9.29711 11.4108 9.12707 12.3749L6.22356 28.8423C6.13656 29.3362 6.46632 29.8072 6.96023 29.8942C7.01347 29.9036 7.06648 29.9081 7.11893 29.9081C7.55133 29.9081 7.93456 29.5981 8.01216 29.1575L10.9158 12.6902C10.9349 12.5818 11.0745 12.4719 11.1608 12.4719L43.8653 12.472L40.9788 28.8423C40.8917 29.3362 41.2215 29.8072 41.7155 29.8942C42.2088 29.9811 42.6804 29.6514 42.7674 29.1575L42.9768 27.9705H53.8366C53.8369 27.9705 53.8374 27.9705 53.8378 27.9705C53.8383 27.9705 53.8387 27.9705 53.8391 27.9705C54.5897 27.9706 55.2382 28.2509 55.6654 28.7599C55.9594 29.1103 56.1309 29.5464 56.1721 30.0289H53.1555C52.7147 30.0289 52.3377 30.3453 52.2612 30.7794L51.9196 32.7167C51.782 33.4972 51.9764 34.2706 52.4528 34.8385C52.9227 35.3987 53.6361 35.7198 54.4097 35.7198H55.2647L54.5601 39.7156H52.1625C52.0047 38.9164 51.6593 38.1813 51.1358 37.5577C50.207 36.4506 48.8402 35.841 47.2874 35.841C44.7976 35.841 42.3955 37.47 41.271 39.7157H40.9059L42.0843 33.0322C42.1713 32.5383 41.8417 32.0673 41.3477 31.9803C40.854 31.8931 40.3827 32.2229 40.2957 32.7169L39.0616 39.7158H22.2505C22.0927 38.9166 21.7473 38.1816 21.2238 37.5579C20.2949 36.4508 18.9282 35.8412 17.3753 35.8412C14.8855 35.8412 12.4834 37.4702 11.3588 39.7159L6.15038 39.7158L6.51333 37.6575H10.5947C11.0962 37.6575 11.5029 37.2509 11.5029 36.7493C11.5029 36.2478 11.0964 35.8411 10.5947 35.8411H0.908176C0.40668 35.8411 0 36.2477 0 36.7493C0 37.2508 0.406566 37.6575 0.908176 37.6575H4.66923L4.34468 39.4977C4.25258 40.0204 4.38602 40.5423 4.71069 40.9293C5.03218 41.3124 5.51555 41.5322 6.03687 41.5322H10.7691C10.5229 43.0727 10.8929 44.5239 11.819 45.6274C12.7479 46.7345 14.1146 47.344 15.6675 47.344C18.7582 47.344 21.7152 44.8348 22.2591 41.7502C22.2719 41.6772 22.282 41.6045 22.2922 41.532H40.6812C40.4349 43.0724 40.8049 44.5237 41.7311 45.6273C42.66 46.7344 44.0268 47.3439 45.5796 47.3439C48.6704 47.3439 51.6274 44.8346 52.1712 41.7501C52.184 41.677 52.1941 41.6044 52.2043 41.5319H55.3224C55.7631 41.5319 56.1401 41.2155 56.2167 40.7814L57.9248 31.0948C58.1566 29.7799 57.8483 28.5362 57.0567 27.5928ZM43.2972 26.1546L44.3434 20.2215H52.4244L52.8616 26.1546H43.2972ZM53.513 18.187L53.4745 18.4052H44.6635L45.0265 16.3468H52.0138C52.5085 16.3468 52.9333 16.5283 53.2097 16.8578C53.4963 17.1992 53.6041 17.6712 53.513 18.187ZM20.4705 41.4351C20.0726 43.692 17.9179 45.5279 15.6675 45.5279C14.6609 45.5279 13.7881 45.1487 13.2103 44.4601C12.6158 43.7516 12.3892 42.7893 12.5724 41.7506C12.9704 39.4937 15.125 37.6577 17.3754 37.6577C18.382 37.6577 19.2548 38.037 19.8326 38.7256C20.4271 39.434 20.6537 40.3963 20.4705 41.4351ZM50.3825 41.4351C49.9846 43.692 47.8299 45.5279 45.5795 45.5279C44.5729 45.5279 43.7002 45.1487 43.1223 44.46C42.5278 43.7514 42.3013 42.7892 42.4844 41.7504C42.8823 39.4935 45.037 37.6576 47.2874 37.6576C48.2939 37.6576 49.1668 38.0369 49.7446 38.7255C50.3391 39.434 50.5657 40.3963 50.3825 41.4351ZM55.585 33.904H54.4097V33.9039C54.1674 33.9039 53.9718 33.8235 53.8442 33.6715C53.7117 33.5135 53.6634 33.2866 53.7082 33.0325L53.9176 31.8457H55.9479L55.585 33.904Z" fill="#464646"/>
<path d="M18.0185 40.3187C17.697 39.9356 17.2137 39.7158 16.6922 39.7158C15.7218 39.7158 14.8284 40.4708 14.6584 41.435C14.5663 41.9577 14.6997 42.4795 15.0244 42.8665C15.3459 43.2496 15.8293 43.4694 16.3506 43.4694C17.3211 43.4694 18.2144 42.7143 18.3844 41.7504C18.4767 41.2276 18.3433 40.7058 18.0185 40.3187Z" fill="#464646"/>
<path d="M47.9305 40.3187C47.6088 39.9356 47.1255 39.7158 46.6043 39.7158C45.6338 39.7158 44.7404 40.4708 44.5705 41.4349C44.4784 41.9577 44.6116 42.4794 44.9364 42.8665C45.2579 43.2496 45.7413 43.4694 46.2626 43.4694C47.2331 43.4694 48.1264 42.7143 48.2965 41.7504C48.3887 41.2276 48.2552 40.7058 47.9305 40.3187Z" fill="#464646"/>
<path d="M36.6322 35.8413H25.1247C24.6232 35.8413 24.2166 36.2479 24.2166 36.7495C24.2166 37.251 24.6231 37.6577 25.1247 37.6577H36.6322C37.1337 37.6577 37.5403 37.2511 37.5403 36.7495C37.5402 36.2479 37.1337 35.8413 36.6322 35.8413Z" fill="#464646"/>
<path d="M20.2815 31.9668H3.52878C3.02729 31.9668 2.62061 32.3734 2.62061 32.875C2.62061 33.3765 3.02706 33.7831 3.52878 33.7831H20.2815C20.783 33.7831 21.1897 33.3766 21.1897 32.875C21.1897 32.3734 20.7831 31.9668 20.2815 31.9668Z" fill="#464646"/>
<path d="M37.6238 28.3131L34.2616 25.4071C33.8821 25.0792 33.3087 25.1208 32.9806 25.5003C32.6526 25.8798 32.6944 26.4532 33.0739 26.7813L34.5905 28.0922H11.5635C11.062 28.0922 10.6553 28.4987 10.6553 29.0004C10.6553 29.5019 11.0618 29.9085 11.5635 29.9085H34.0146L32.1415 31.1494C31.7232 31.4263 31.6089 31.9899 31.8859 32.408C32.0606 32.6718 32.3494 32.8147 32.6437 32.8147C32.8159 32.8147 32.9902 32.7657 33.1444 32.6634L37.5315 29.7574C37.7685 29.6006 37.9181 29.3419 37.9362 29.0582C37.9544 28.7745 37.8388 28.4988 37.6238 28.3131Z" fill="#464646"/>
</svg>
