<svg width="35" height="35" viewBox="0 0 35 35" fill="none" xmlns="http://www.w3.org/2000/svg">
<path d="M24.5979 17.2193C26.266 14.8377 27.1477 12.0419 27.1477 9.1342V2.65127C27.1477 2.3311 26.9253 2.05365 26.6129 1.98396L17.7859 0.016222C17.6879 -0.00540734 17.5865 -0.00540734 17.4885 0.016222L8.66181 1.98396C8.34912 2.05365 8.12695 2.3311 8.12695 2.65127V9.1342C8.12695 12.0419 9.00868 14.8377 10.6768 17.219C12.3449 19.6007 14.671 21.3847 17.4038 22.3786C17.4791 22.4058 17.5584 22.4197 17.6372 22.4197C17.7162 22.4197 17.7955 22.4058 17.8709 22.3786C20.6036 21.385 22.9297 19.6007 24.5979 17.2193ZM17.6372 21.0061C15.2708 20.0936 13.255 18.5171 11.7967 16.4348C10.2904 14.2844 9.49414 11.7599 9.49414 9.1342V3.19921L17.6372 1.38395L25.7805 3.19921V9.1342C25.7805 11.7596 24.9842 14.2841 23.4779 16.4348C22.0194 18.5171 20.0036 20.0936 17.6372 21.0061Z" fill="#85AEC6"/>
<path d="M24.6171 4.67934C24.6171 4.35891 24.3949 4.08173 24.0822 4.01204L17.7857 2.60826C17.6877 2.58663 17.5859 2.58663 17.4879 2.60826L11.1911 4.01204C10.8226 4.09428 10.5906 4.45958 10.6728 4.82808C10.7548 5.19658 11.1204 5.42863 11.4886 5.34638L17.6367 3.97599L23.2499 5.22729V9.13419C23.2499 11.2378 22.612 13.2603 21.4053 14.9835C20.4357 16.3677 19.1374 17.4893 17.6367 18.2431C16.136 17.4895 14.8379 16.3677 13.8684 14.9835C12.8245 13.4932 12.1976 11.7511 12.0555 9.94596C12.0435 9.79535 12.0349 9.64315 12.0299 9.49308C12.0168 9.1155 11.6982 8.82043 11.323 8.83325C10.9457 8.84633 10.6504 9.16276 10.6635 9.54007C10.6693 9.71017 10.679 9.88294 10.6923 10.0533C10.8536 12.1017 11.5647 14.0777 12.7484 15.7677C13.9178 17.4369 15.5087 18.7699 17.3496 19.6223C17.4407 19.6645 17.5389 19.6856 17.6369 19.6856C17.7349 19.6856 17.8329 19.6645 17.924 19.6223C19.7652 18.7697 21.3561 17.4369 22.5252 15.7677C23.8937 13.8139 24.6173 11.5198 24.6173 9.13419V4.67934H24.6171Z" fill="#85AEC6"/>
<path d="M15.6896 12.683C15.8092 12.8245 15.9809 12.9113 16.166 12.9236C16.1812 12.9246 16.1964 12.9252 16.2116 12.9252C16.3804 12.9252 16.5441 12.8627 16.6701 12.7487L21.6262 8.2647C21.906 8.01155 21.9276 7.57923 21.6745 7.29912C21.4211 7.01927 20.9888 6.99764 20.7089 7.25078L16.2771 11.2602L15.0121 9.76407C14.7686 9.47594 14.3371 9.43963 14.049 9.68342C13.7606 9.92722 13.7245 10.3585 13.9681 10.6469L15.6896 12.683Z" fill="#85AEC6"/>
<path d="M11.8804 22.6236C11.5201 22.1499 10.9965 21.8487 10.4061 21.775C9.81569 21.7015 9.2341 21.8647 8.7684 22.2351C8.5505 22.4084 8.37453 22.6161 8.24182 22.845L8.04101 22.5833C7.86264 22.3512 7.76464 22.0623 7.76464 21.7696V15.6026C7.76464 14.3428 6.73951 13.3176 5.47967 13.3176C4.29459 13.3176 3.31673 14.2074 3.20484 15.3868L2.47318 23.1032C2.40883 23.779 2.59949 24.4495 3.01205 24.9943L8.82261 32.5603V34.3163C8.82261 34.6939 9.12862 34.9999 9.5062 34.9999C9.88351 34.9999 10.1898 34.6939 10.1898 34.3163V32.328C10.1898 32.1774 10.1399 32.031 10.0483 31.9117L4.09913 24.1652C3.89645 23.8976 3.80246 23.5662 3.83423 23.2322L4.56616 15.5161C4.61102 15.0421 5.00382 14.6848 5.47967 14.6848C5.98595 14.6848 6.39745 15.0966 6.39745 15.6026V21.7696C6.39745 22.3619 6.59612 22.9464 6.95687 23.4159L8.38788 25.2795C8.39002 25.2824 8.39215 25.2853 8.39429 25.2883L9.54892 26.7919C9.7791 27.0913 10.2082 27.1476 10.5076 26.9177C10.8069 26.6878 10.8632 26.2587 10.6333 25.9591L9.47496 24.4506C9.20659 24.0955 9.27068 23.5828 9.61995 23.3051C9.79539 23.1654 10.0146 23.104 10.2371 23.1315C10.4595 23.1593 10.6568 23.273 10.7925 23.4514L13.5522 27.0782C14.0954 27.7919 14.3944 28.679 14.3944 29.576V34.3163C14.3944 34.6939 14.7005 34.9999 15.078 34.9999C15.4556 34.9999 15.7616 34.6939 15.7616 34.3163V29.576C15.7616 28.3818 15.3635 27.2007 14.6404 26.2504L11.8804 22.6236Z" fill="#85AEC6"/>
<path d="M32.6081 23.1032L31.8761 15.3868C31.7642 14.2074 30.7861 13.3176 29.6013 13.3176C28.3415 13.3176 27.3163 14.3428 27.3163 15.6026V21.7696C27.3163 22.0623 27.2181 22.3512 27.04 22.5833L26.8389 22.845C26.7064 22.6164 26.5305 22.4086 26.3126 22.2351C25.8469 21.8647 25.2653 21.7015 24.6749 21.775C24.0845 21.8487 23.5608 22.1499 23.2006 22.6236L20.4409 26.2504C19.7177 27.2007 19.3193 28.3818 19.3193 29.5762V34.3163C19.3193 34.6939 19.6256 34.9999 20.0029 34.9999C20.3805 34.9999 20.6865 34.6939 20.6865 34.3163V29.576C20.6865 28.679 20.9856 27.7919 21.5287 27.0782L24.2885 23.4514C24.4244 23.273 24.6217 23.1595 24.8442 23.1315C25.0666 23.104 25.2858 23.1654 25.4613 23.3051C25.8103 23.5828 25.8746 24.0955 25.606 24.4506L24.4479 25.9591C24.218 26.2587 24.2743 26.6878 24.5737 26.9177C24.873 27.1476 25.3021 27.0913 25.5323 26.7919L26.6867 25.2883C26.6888 25.2856 26.6907 25.2829 26.6928 25.2803L28.1244 23.4161C28.4849 22.9464 28.6835 22.3619 28.6835 21.7696V15.6026C28.6835 15.0966 29.0953 14.6848 29.6013 14.6848C30.0772 14.6848 30.47 15.0421 30.5151 15.5161L31.247 23.2322C31.2785 23.5665 31.1845 23.8976 30.9845 24.1617L25.0327 31.9117C24.9411 32.031 24.8914 32.1776 24.8914 32.3282V34.3163C24.8914 34.6939 25.1975 34.9999 25.575 34.9999C25.9526 34.9999 26.2586 34.6939 26.2586 34.3163V32.5603L32.0716 24.9908C32.4815 24.4495 32.6721 23.779 32.6081 23.1032Z" fill="#85AEC6"/>
<path d="M10.9606 7.66289C11.2012 7.82338 11.527 7.81323 11.7561 7.63672C11.9716 7.47063 12.0728 7.18064 12.0001 6.91735C11.9224 6.6351 11.6698 6.42788 11.3764 6.41186C11.0858 6.39611 10.8116 6.57341 10.7051 6.84338C10.5881 7.14005 10.6963 7.48505 10.9606 7.66289Z" fill="#85AEC6"/>
</svg>
