<svg width="26" height="30" viewBox="0 0 26 30" fill="none" xmlns="http://www.w3.org/2000/svg">
<path d="M9.08954 13.1942V13.2758C9.12053 14.0532 10.2307 14.0526 10.2614 13.2758V13.2395C12.9494 12.8618 12.715 9.7663 10.5395 9.0323C10.4418 8.99779 10.3493 8.96474 10.2614 8.9331V7.06121C10.4903 7.13158 10.6498 7.24794 10.7278 7.35916C10.9137 7.624 11.2791 7.68787 11.5441 7.50212C11.809 7.31621 11.873 6.95076 11.6871 6.68585C11.4117 6.29351 10.9124 5.96632 10.2614 5.8598V5.73763C10.2304 4.96021 9.12024 4.9608 9.08954 5.73763V5.90416C9.00123 5.92378 8.91164 5.94693 8.82059 5.97435C7.20715 6.49507 6.93762 8.80255 8.59811 9.54183C8.70586 9.59269 8.87491 9.66294 9.08954 9.74668V11.9895C8.79047 11.8998 8.51573 11.7501 8.33719 11.5285C8.13422 11.2766 7.76538 11.2368 7.5133 11.4398C7.26129 11.6428 7.22157 12.0117 7.42459 12.2637C7.85016 12.7919 8.47799 13.0738 9.08954 13.1942ZM11.0479 11.3383C11.0016 11.7025 10.7189 11.9548 10.2614 12.0516V10.1817C10.8682 10.4435 11.0967 10.9541 11.0479 11.3383ZM8.64276 7.7938C8.66414 7.50523 8.85112 7.23066 9.08954 7.12302V8.47759C8.69309 8.28681 8.62735 8.00093 8.64276 7.7938Z" fill="#85AEC6"/>
<path d="M11.8885 22.4541H7.63265C6.85523 22.4851 6.85582 23.5953 7.63265 23.626H11.8885C12.6659 23.595 12.6653 22.4848 11.8885 22.4541Z" fill="#85AEC6"/>
<path d="M25.9891 16.8121C25.9891 13.1143 23.133 10.0714 19.511 9.77253V1.31241C19.511 1.08513 19.3796 0.878408 19.1738 0.781904L17.6246 0.055459C17.4669 -0.0184863 17.2846 -0.0184863 17.1271 0.055459L14.8433 1.12632L12.5596 0.055459C12.402 -0.0184863 12.2197 -0.0184863 12.0621 0.055459L9.7785 1.12626L7.49533 0.055459C7.33777 -0.0184863 7.15543 -0.0184863 6.99775 0.055459L4.71418 1.12632L2.43049 0.055459C2.27293 -0.0184863 2.09064 -0.0184863 1.93297 0.055459L0.34789 0.798779C0.142168 0.895225 0.0107422 1.102 0.0107422 1.32929V28.6876C0.0107422 28.9149 0.142168 29.1217 0.347949 29.2182L1.89711 29.9446C2.05479 30.0185 2.23707 30.0185 2.39463 29.9446L4.67844 28.8738L6.96213 29.9446C7.11969 30.0185 7.30197 30.0185 7.45965 29.9446L9.74322 28.8738L12.0265 29.9446C12.1841 30.0185 12.3665 30.0185 12.5241 29.9446L14.8076 28.8738L17.0912 29.9446C17.2489 30.0185 17.4311 30.0185 17.5888 29.9446L19.1739 29.2013C19.3796 29.1048 19.511 28.8981 19.511 28.6708V23.8516C23.1329 23.5528 25.9891 20.5099 25.9891 16.8121ZM17.34 28.7669L15.0563 27.6961C14.8987 27.6222 14.7164 27.6222 14.5588 27.6961L12.2752 28.7669L9.99195 27.6961C9.83428 27.6222 9.65205 27.6222 9.49437 27.6961L7.21086 28.7669L4.92717 27.6961C4.76961 27.6222 4.58727 27.6222 4.42971 27.6961L2.1459 28.7669L1.18262 28.3152V1.70165L2.18176 1.23313L4.46545 2.30394C4.62301 2.37788 4.80529 2.37788 4.96297 2.30394L7.24654 1.23313L9.52977 2.30394C9.68732 2.37788 9.86967 2.37788 10.0273 2.30394L12.3109 1.23313L14.5946 2.30394C14.7522 2.37788 14.9345 2.37788 15.0921 2.30394L17.3759 1.23313L18.3392 1.68483V9.77253C14.659 10.0701 11.7665 13.2297 11.8633 16.9832H4.59482C3.8174 17.0142 3.81799 18.1244 4.59482 18.1551H11.9896C12.0952 18.701 12.2632 19.2249 12.487 19.7186H4.59482C3.8174 19.7496 3.81799 20.8598 4.59482 20.8905H13.1604C14.335 22.5459 16.2039 23.6755 18.3391 23.8516V28.2984L17.34 28.7669ZM18.925 22.7042C15.6761 22.7042 13.0329 20.0611 13.0329 16.812C13.3565 8.99528 24.4947 8.99757 24.8172 16.8121C24.8172 20.0611 22.174 22.7042 18.925 22.7042Z" fill="#85AEC6"/>
<path d="M20.4141 13.2322C20.1158 13.1067 19.7724 13.2473 19.6471 13.5458L17.2011 19.3746C17.0758 19.673 17.2163 20.0164 17.5147 20.1416C17.8057 20.266 18.1565 20.1295 18.2817 19.828L20.7277 13.9992C20.8529 13.7008 20.7126 13.3574 20.4141 13.2322Z" fill="#85AEC6"/>
<path d="M18.9408 14.7567C18.9408 13.7411 18.1931 12.9148 17.274 12.9148C15.0632 13.0148 15.064 16.4992 17.274 16.5987C18.1931 16.5987 18.9408 15.7724 18.9408 14.7567ZM16.7791 14.7567C16.7791 14.3936 17.0057 14.0867 17.274 14.0867C17.5422 14.0867 17.7689 14.3935 17.7689 14.7567C17.7689 15.12 17.5422 15.4269 17.274 15.4269C17.0057 15.4269 16.7791 15.12 16.7791 14.7567Z" fill="#85AEC6"/>
<path d="M20.5769 16.9001C19.6578 16.9001 18.9102 17.7265 18.9102 18.7422C19.0022 21.1859 22.1519 21.1854 22.2437 18.7422C22.2437 17.7264 21.496 16.9001 20.5769 16.9001ZM20.5769 19.4122C20.3087 19.4122 20.082 19.1054 20.082 18.7421C20.082 18.3788 20.3087 18.072 20.5769 18.072C20.8452 18.072 21.0717 18.3788 21.0717 18.7421C21.0717 19.1054 20.8452 19.4122 20.5769 19.4122Z" fill="#85AEC6"/>
</svg>
