<svg width="29" height="28" viewBox="0 0 29 28" fill="none" xmlns="http://www.w3.org/2000/svg">
<path d="M9.62445 26.605C10.7308 26.605 11.6276 25.7215 11.6276 24.6317C11.6276 23.5419 10.7308 22.6584 9.62445 22.6584C8.51813 22.6584 7.62128 23.5419 7.62128 24.6317C7.62128 25.7215 8.51813 26.605 9.62445 26.605Z" stroke="#464646" stroke-width="1.5" stroke-miterlimit="10"/>
<path d="M21.7817 26.605C22.888 26.605 23.7849 25.7215 23.7849 24.6317C23.7849 23.5419 22.888 22.6584 21.7817 22.6584C20.6754 22.6584 19.7785 23.5419 19.7785 24.6317C19.7785 25.7215 20.6754 26.605 21.7817 26.605Z" stroke="#464646" stroke-width="1.5" stroke-miterlimit="10"/>
<path d="M23.7848 19.574H11.1211C10.5663 19.571 10.0351 19.3526 9.64282 18.9662C9.25053 18.5798 9.02881 18.0565 9.02579 17.51V17.51C9.02637 16.9964 9.22135 16.5014 9.57262 16.1219C9.92389 15.7423 10.4062 15.5054 10.9253 15.4574L23.5891 14.1305C24.1274 14.0659 24.6339 13.8447 25.044 13.4953C25.4541 13.1459 25.7492 12.684 25.8916 12.1686L27.5034 6.31684C27.5222 6.24154 27.5238 6.16303 27.508 6.08705C27.4922 6.01106 27.4594 5.9395 27.412 5.87758C27.3646 5.81566 27.3037 5.76494 27.2339 5.7291C27.1641 5.69326 27.087 5.67322 27.0083 5.67042L6.5506 5.2168" stroke="#464646" stroke-width="1.5" stroke-miterlimit="10" stroke-linecap="round"/>
<path d="M10.131 15.6955L5.56053 3.40228C5.36691 2.87516 5.01344 2.41944 4.54802 2.09689C4.08261 1.77434 3.52776 1.60057 2.95871 1.59912H1.15125" stroke="#464646" stroke-width="1.5" stroke-miterlimit="10" stroke-linecap="round"/>
</svg>
