<svg width="26" height="25" viewBox="0 0 26 25" fill="none" xmlns="http://www.w3.org/2000/svg">
<path d="M12.7 13.54C16.1352 13.54 18.92 10.7552 18.92 7.31998C18.92 3.88476 16.1352 1.09998 12.7 1.09998C9.26477 1.09998 6.47998 3.88476 6.47998 7.31998C6.47998 10.7552 9.26477 13.54 12.7 13.54Z" stroke="#464646" stroke-width="1.5" stroke-miterlimit="10"/>
<path d="M23.4799 18.52V20.52C23.4799 21.2079 23.2074 21.8677 22.7219 22.355C22.2365 22.8423 21.5777 23.1174 20.8899 23.12H4.51992C4.17848 23.12 3.84039 23.0528 3.52494 22.9221C3.2095 22.7914 2.92288 22.5999 2.68144 22.3585C2.44001 22.1171 2.2485 21.8304 2.11784 21.515C1.98717 21.1996 1.91992 20.8615 1.91992 20.52V18.4" stroke="#464646" stroke-width="1.5" stroke-miterlimit="10"/>
<path d="M12.6999 13.54C10.98 13.4443 9.25525 13.5992 7.57992 14C4.47992 14.82 1.91992 16.51 1.91992 18.42" stroke="#464646" stroke-width="1.5" stroke-miterlimit="10"/>
<path d="M23.48 18.67C23.4919 18.1238 23.3685 17.5833 23.1207 17.0965C22.873 16.6096 22.5086 16.1917 22.06 15.88C21.5283 15.4103 20.9364 15.0135 20.3 14.7" stroke="#464646" stroke-width="1.5" stroke-miterlimit="10" stroke-linecap="round"/>
</svg>
