<svg width="20" height="20" viewBox="0 0 20 20" fill="none" xmlns="http://www.w3.org/2000/svg">
<path fill-rule="evenodd" clip-rule="evenodd" d="M20.0008 9.99991C20.0008 15.5227 15.5237 19.9998 10.0009 19.9998C4.47809 19.9998 0.000976562 15.5227 0.000976562 9.99991C0.000976562 4.47711 4.47809 0 10.0009 0C15.5237 0 20.0008 4.47711 20.0008 9.99991ZM14.7524 7.56251C15.2358 7.50511 15.6968 7.37658 16.1253 7.18656C15.805 7.6659 15.3998 8.08676 14.9324 8.42367C14.937 8.52599 14.9394 8.6292 14.9394 8.73277C14.9394 11.8917 12.535 15.5338 8.13847 15.5338C6.7887 15.5338 5.53198 15.1383 4.47473 14.4598C4.66137 14.4821 4.8521 14.4934 5.04462 14.4934C6.16479 14.4934 7.1953 14.1113 8.01351 13.4702C6.96731 13.4507 6.08476 12.7596 5.78065 11.8102C5.92646 11.838 6.07602 11.8528 6.23039 11.8528C6.44805 11.8528 6.65964 11.8238 6.86 11.7689C5.76674 11.5494 4.94248 10.5834 4.94248 9.4253C4.94248 9.41532 4.94248 9.40516 4.94266 9.395C5.26477 9.5745 5.63359 9.68199 6.02522 9.69429C5.3842 9.26576 4.96191 8.53383 4.96191 7.70476C4.96191 7.26678 5.07992 6.85589 5.28563 6.50294C6.46462 7.9495 8.22599 8.90104 10.2125 9.00069C10.1715 8.82564 10.1503 8.64328 10.1503 8.45593C10.1503 7.13611 11.2207 6.06567 12.5405 6.06567C13.2284 6.06567 13.8497 6.35588 14.2857 6.82024C14.8299 6.71311 15.3417 6.51435 15.8036 6.24037C15.6248 6.79885 15.246 7.26678 14.7524 7.56251Z" fill="#75A5C1"/>
</svg>
